<?xml version="1.0" standalone="no"?>
 <!DOCTYPE svg PUBLIC "-//W3C//DTD SVG 1.1//EN" 
 "http://www.w3.org/Graphics/SVG/1.1/DTD/svg11.dtd"> 
<svg
  xmlns:svg="http://www.w3.org/2000/svg"
  xmlns="http://www.w3.org/2000/svg"
  xmlns:xlink="http://www.w3.org/1999/xlink"
  version="1.1"
  width="387.3246mm" height="91.5162mm" viewBox="0.0000 0.0000 387.3246 91.5162">
<title>SVG Image created as KeeBar_TopPlate-brd.svg date 2023/06/19 21:10:17 </title>
  <desc>Image generated by PCBNEW </desc>
<g style="fill:#000000; fill-opacity:1.0000;stroke:#000000; stroke-opacity:1.0000;
stroke-linecap:round; stroke-linejoin:round;"
 transform="translate(0 0) scale(1 1)">
</g>
<g style="fill:#000000; fill-opacity:0.0; 
stroke:#000000; stroke-width:0.0000; stroke-opacity:1; 
stroke-linecap:round; stroke-linejoin:round;">
</g>
<g style="fill:#000000; fill-opacity:0.0; 
stroke:#000000; stroke-width:0.1000; stroke-opacity:1; 
stroke-linecap:round; stroke-linejoin:round;">
<path d="M188.6393 85.7250
L212.3205 85.7250
" />
<path style="fill:#000000; fill-opacity:0.0; 
stroke:#000000; stroke-width:0.1000; stroke-opacity:1; 
stroke-linecap:round; stroke-linejoin:round;fill:none"
d="M 133.7393,72.6750
146.8080,72.6750
146.8080,86.7750
132.7080,86.7750
132.7080,85.7250
119.5793,85.7250
119.5793,70.9250
133.7393,70.9250
Z" /> 
<path d="M387.2393 5.9250 A1.0000 1.0000 0.0 0 0 386.2393 4.9250" />
<path d="M12.2393 4.9250 A1.0000 1.0000 0.0 0 0 11.2393 5.9250" />
<path d="M212.3205 85.7250
L212.3205 70.9250
" />
<path d="M148.1580 70.9250
L148.1580 85.7250
" />
<path d="M386.2393 91.4250 A1.0000 1.0000 0.0 0 0 387.2393 90.4250" />
<path d="M387.2393 5.9250
L387.2393 90.4250
" />
<path d="M171.8393 70.9250
L148.1580 70.9250
" />
<path d="M11.2393 90.4250 A1.0000 1.0000 0.0 0 0 12.2393 91.4250" />
<path d="M212.3205 70.9250
L188.6393 70.9250
" />
<path d="M12.2393 4.9250
L386.2393 4.9250
" />
<path d="M11.2393 90.4250
L11.2393 5.9250
" />
<path d="M171.8393 85.7250
L171.8393 70.9250
" />
<path d="M386.2393 91.4250
L12.2393 91.4250
" />
<path d="M188.6393 70.9250
L188.6393 85.7250
" />
<path d="M148.1580 85.7250
L171.8393 85.7250
" />
<path style="fill:#000000; fill-opacity:0.0; 
stroke:#000000; stroke-width:0.1000; stroke-opacity:1; 
stroke-linecap:round; stroke-linejoin:round;fill:none"
d="M 240.8893,85.7250
227.7605,85.7250
227.7605,86.7750
213.6605,86.7750
213.6605,72.6750
226.7293,72.6750
226.7293,70.9250
240.8893,70.9250
Z" /> 
</g>
<g style="fill:#000000; fill-opacity:0.0; 
stroke:#000000; stroke-width:0.1500; stroke-opacity:1; 
stroke-linecap:round; stroke-linejoin:round;">
<path d="M256.5330 67.9125
L270.6330 67.9125
" />
<path d="M256.5330 82.0125
L256.5330 67.9125
" />
<path d="M270.6330 67.9125
L270.6330 82.0125
" />
<path d="M270.6330 82.0125
L256.5330 82.0125
" />
<path d="M297.0143 29.8125
L311.1143 29.8125
" />
<path d="M297.0143 43.9125
L297.0143 29.8125
" />
<path d="M311.1143 29.8125
L311.1143 43.9125
" />
<path d="M311.1143 43.9125
L297.0143 43.9125
" />
<path d="M101.7518 10.7625
L115.8518 10.7625
" />
<path d="M101.7518 24.8625
L101.7518 10.7625
" />
<path d="M115.8518 10.7625
L115.8518 24.8625
" />
<path d="M115.8518 24.8625
L101.7518 24.8625
" />
<path d="M258.9143 29.8125
L273.0143 29.8125
" />
<path d="M258.9143 43.9125
L258.9143 29.8125
" />
<path d="M273.0143 29.8125
L273.0143 43.9125
" />
<path d="M273.0143 43.9125
L258.9143 43.9125
" />
<path d="M323.2080 48.8625
L337.3080 48.8625
" />
<path d="M323.2080 62.9625
L323.2080 48.8625
" />
<path d="M337.3080 48.8625
L337.3080 62.9625
" />
<path d="M337.3080 62.9625
L323.2080 62.9625
" />
<path d="M339.8768 10.7625
L353.9768 10.7625
" />
<path d="M339.8768 24.8625
L339.8768 10.7625
" />
<path d="M353.9768 10.7625
L353.9768 24.8625
" />
<path d="M353.9768 24.8625
L339.8768 24.8625
" />
<path d="M192.2393 29.8125
L206.3393 29.8125
" />
<path d="M192.2393 43.9125
L192.2393 29.8125
" />
<path d="M206.3393 29.8125
L206.3393 43.9125
" />
<path d="M206.3393 43.9125
L192.2393 43.9125
" />
<path d="M130.3268 48.8625
L144.4268 48.8625
" />
<path d="M130.3268 62.9625
L130.3268 48.8625
" />
<path d="M144.4268 48.8625
L144.4268 62.9625
" />
<path d="M144.4268 62.9625
L130.3268 62.9625
" />
<path d="M173.1893 72.6750
L187.2893 72.6750
" />
<path d="M173.1893 86.7750
L173.1893 72.6750
" />
<path d="M187.2893 72.6750
L187.2893 86.7750
" />
<path d="M187.2893 86.7750
L173.1893 86.7750
" />
<path d="M292.2518 10.7625
L306.3518 10.7625
" />
<path d="M292.2518 24.8625
L292.2518 10.7625
" />
<path d="M306.3518 10.7625
L306.3518 24.8625
" />
<path d="M306.3518 24.8625
L292.2518 24.8625
" />
</g>
<g style="fill:#000000; fill-opacity:0.0; 
stroke:#000000; stroke-width:0.0100; stroke-opacity:1; 
stroke-linecap:round; stroke-linejoin:round;">
<circle cx="39.7393" cy="67.9250" r="2.2000" /> 
</g>
<g style="fill:#000000; fill-opacity:0.0; 
stroke:#000000; stroke-width:0.1500; stroke-opacity:1; 
stroke-linecap:round; stroke-linejoin:round;">
<path d="M349.4018 72.6750
L363.5018 72.6750
" />
<path d="M349.4018 86.7750
L349.4018 72.6750
" />
<path d="M363.5018 72.6750
L363.5018 86.7750
" />
<path d="M363.5018 86.7750
L349.4018 86.7750
" />
<path d="M197.0018 48.8625
L211.1018 48.8625
" />
<path d="M197.0018 62.9625
L197.0018 48.8625
" />
<path d="M211.1018 48.8625
L211.1018 62.9625
" />
<path d="M211.1018 62.9625
L197.0018 62.9625
" />
<path d="M280.3455 67.9125
L294.4455 67.9125
" />
<path d="M280.3455 82.0125
L280.3455 67.9125
" />
<path d="M294.4455 67.9125
L294.4455 82.0125
" />
<path d="M294.4455 82.0125
L280.3455 82.0125
" />
<path d="M216.0518 10.7625
L230.1518 10.7625
" />
<path d="M216.0518 24.8625
L216.0518 10.7625
" />
<path d="M230.1518 10.7625
L230.1518 24.8625
" />
<path d="M230.1518 24.8625
L216.0518 24.8625
" />
<path d="M87.4643 29.8125
L101.5643 29.8125
" />
<path d="M87.4643 43.9125
L87.4643 29.8125
" />
<path d="M101.5643 29.8125
L101.5643 43.9125
" />
<path d="M101.5643 43.9125
L87.4643 43.9125
" />
<path d="M277.9643 29.8125
L292.0643 29.8125
" />
<path d="M277.9643 43.9125
L277.9643 29.8125
" />
<path d="M292.0643 29.8125
L292.0643 43.9125
" />
<path d="M292.0643 43.9125
L277.9643 43.9125
" />
<path d="M73.1768 48.8625
L87.2768 48.8625
" />
<path d="M73.1768 62.9625
L73.1768 48.8625
" />
<path d="M87.2768 48.8625
L87.2768 62.9625
" />
<path d="M87.2768 62.9625
L73.1768 62.9625
" />
</g>
<g style="fill:#000000; fill-opacity:0.0; 
stroke:#000000; stroke-width:0.1200; stroke-opacity:1; 
stroke-linecap:round; stroke-linejoin:round;">
<path d="M17.2018 49.9125
L24.2018 49.9125
" />
<path d="M17.2018 64.7125
L17.2018 49.9125
" />
<path d="M24.2018 49.9125
L24.2018 64.7125
" />
<path d="M24.2018 64.7125
L17.2018 64.7125
" />
</g>
<g style="fill:#000000; fill-opacity:0.0; 
stroke:#000000; stroke-width:0.1500; stroke-opacity:1; 
stroke-linecap:round; stroke-linejoin:round;">
<path d="M25.5518 48.8625
L39.6518 48.8625
" />
<path d="M25.5518 62.9625
L25.5518 48.8625
" />
<path d="M39.6518 48.8625
L39.6518 62.9625
" />
<path d="M39.6518 62.9625
L25.5518 62.9625
" />
</g>
<g style="fill:#000000; fill-opacity:0.0; 
stroke:#000000; stroke-width:0.1200; stroke-opacity:1; 
stroke-linecap:round; stroke-linejoin:round;">
<path d="M41.0018 49.9125
L41.0018 64.7125
" />
<path d="M41.0018 64.7125
L48.0018 64.7125
" />
<path d="M48.0018 49.9125
L41.0018 49.9125
" />
<path d="M48.0018 64.7125
L48.0018 49.9125
" />
</g>
<g style="fill:#000000; fill-opacity:0.0; 
stroke:#000000; stroke-width:0.1500; stroke-opacity:1; 
stroke-linecap:round; stroke-linejoin:round;">
<path d="M20.7893 10.7625
L34.8893 10.7625
" />
<path d="M20.7893 24.8625
L20.7893 10.7625
" />
<path d="M34.8893 10.7625
L34.8893 24.8625
" />
<path d="M34.8893 24.8625
L20.7893 24.8625
" />
<path d="M282.7268 48.8625
L296.8268 48.8625
" />
<path d="M282.7268 62.9625
L282.7268 48.8625
" />
<path d="M296.8268 48.8625
L296.8268 62.9625
" />
<path d="M296.8268 62.9625
L282.7268 62.9625
" />
<path d="M177.9518 48.8625
L192.0518 48.8625
" />
<path d="M177.9518 62.9625
L177.9518 48.8625
" />
<path d="M192.0518 48.8625
L192.0518 62.9625
" />
<path d="M192.0518 62.9625
L177.9518 62.9625
" />
<path d="M106.5143 29.8125
L120.6143 29.8125
" />
<path d="M106.5143 43.9125
L106.5143 29.8125
" />
<path d="M120.6143 29.8125
L120.6143 43.9125
" />
<path d="M120.6143 43.9125
L106.5143 43.9125
" />
<path d="M330.3518 72.6750
L344.4518 72.6750
" />
<path d="M330.3518 86.7750
L330.3518 72.6750
" />
<path d="M344.4518 72.6750
L344.4518 86.7750
" />
<path d="M344.4518 86.7750
L330.3518 86.7750
" />
</g>
<g style="fill:#000000; fill-opacity:0.0; 
stroke:#000000; stroke-width:0.0100; stroke-opacity:1; 
stroke-linecap:round; stroke-linejoin:round;">
<circle cx="39.7393" cy="24.9250" r="2.2000" /> 
</g>
<g style="fill:#000000; fill-opacity:0.0; 
stroke:#000000; stroke-width:0.1500; stroke-opacity:1; 
stroke-linecap:round; stroke-linejoin:round;">
<path d="M316.0643 10.7625
L330.1643 10.7625
" />
<path d="M316.0643 24.8625
L316.0643 10.7625
" />
<path d="M330.1643 10.7625
L330.1643 24.8625
" />
<path d="M330.1643 24.8625
L316.0643 24.8625
" />
<path d="M68.4143 29.8125
L82.5143 29.8125
" />
<path d="M68.4143 43.9125
L68.4143 29.8125
" />
<path d="M82.5143 29.8125
L82.5143 43.9125
" />
<path d="M82.5143 43.9125
L68.4143 43.9125
" />
<path d="M44.6018 67.9125
L58.7018 67.9125
" />
<path d="M44.6018 82.0125
L44.6018 67.9125
" />
<path d="M58.7018 67.9125
L58.7018 82.0125
" />
<path d="M58.7018 82.0125
L44.6018 82.0125
" />
<path d="M54.1268 48.8625
L68.2268 48.8625
" />
<path d="M54.1268 62.9625
L54.1268 48.8625
" />
<path d="M68.2268 48.8625
L68.2268 62.9625
" />
<path d="M68.2268 62.9625
L54.1268 62.9625
" />
<path d="M168.4268 10.7625
L182.5268 10.7625
" />
<path d="M168.4268 24.8625
L168.4268 10.7625
" />
<path d="M182.5268 10.7625
L182.5268 24.8625
" />
<path d="M182.5268 24.8625
L168.4268 24.8625
" />
<path d="M66.0330 67.9125
L80.1330 67.9125
" />
<path d="M66.0330 82.0125
L66.0330 67.9125
" />
<path d="M80.1330 67.9125
L80.1330 82.0125
" />
<path d="M80.1330 82.0125
L66.0330 82.0125
" />
</g>
<g style="fill:#000000; fill-opacity:0.0; 
stroke:#000000; stroke-width:0.0100; stroke-opacity:1; 
stroke-linecap:round; stroke-linejoin:round;">
<circle cx="107.2393" cy="66.9250" r="2.2000" /> 
</g>
<g style="fill:#000000; fill-opacity:0.0; 
stroke:#000000; stroke-width:0.1500; stroke-opacity:1; 
stroke-linecap:round; stroke-linejoin:round;">
<path d="M220.8143 29.8125
L234.9143 29.8125
" />
<path d="M220.8143 43.9125
L220.8143 29.8125
" />
<path d="M234.9143 29.8125
L234.9143 43.9125
" />
<path d="M234.9143 43.9125
L220.8143 43.9125
" />
<path d="M349.4018 53.6250
L363.5018 53.6250
" />
<path d="M349.4018 67.7250
L349.4018 53.6250
" />
<path d="M363.5018 53.6250
L363.5018 67.7250
" />
<path d="M363.5018 67.7250
L349.4018 67.7250
" />
<path d="M239.8643 29.8125
L253.9643 29.8125
" />
<path d="M239.8643 43.9125
L239.8643 29.8125
" />
<path d="M253.9643 29.8125
L253.9643 43.9125
" />
<path d="M253.9643 43.9125
L239.8643 43.9125
" />
<path d="M120.8018 10.7625
L134.9018 10.7625
" />
<path d="M120.8018 24.8625
L120.8018 10.7625
" />
<path d="M134.9018 10.7625
L134.9018 24.8625
" />
<path d="M134.9018 24.8625
L120.8018 24.8625
" />
</g>
<g style="fill:#000000; fill-opacity:0.0; 
stroke:#000000; stroke-width:0.0100; stroke-opacity:1; 
stroke-linecap:round; stroke-linejoin:round;">
<circle cx="335.2393" cy="24.9250" r="2.2000" /> 
</g>
<g style="fill:#000000; fill-opacity:0.0; 
stroke:#000000; stroke-width:0.1500; stroke-opacity:1; 
stroke-linecap:round; stroke-linejoin:round;">
<path d="M125.5643 29.8125
L139.6643 29.8125
" />
<path d="M125.5643 43.9125
L125.5643 29.8125
" />
<path d="M139.6643 29.8125
L139.6643 43.9125
" />
<path d="M139.6643 43.9125
L125.5643 43.9125
" />
<path d="M187.4768 10.7625
L201.5768 10.7625
" />
<path d="M187.4768 24.8625
L187.4768 10.7625
" />
<path d="M201.5768 10.7625
L201.5768 24.8625
" />
<path d="M201.5768 24.8625
L187.4768 24.8625
" />
<path d="M173.1893 29.8125
L187.2893 29.8125
" />
<path d="M173.1893 43.9125
L173.1893 29.8125
" />
<path d="M187.2893 29.8125
L187.2893 43.9125
" />
<path d="M187.2893 43.9125
L173.1893 43.9125
" />
<path d="M368.4518 72.6750
L382.5518 72.6750
" />
<path d="M368.4518 86.7750
L368.4518 72.6750
" />
<path d="M382.5518 72.6750
L382.5518 86.7750
" />
<path d="M382.5518 86.7750
L368.4518 86.7750
" />
<path d="M149.3768 10.7625
L163.4768 10.7625
" />
<path d="M149.3768 24.8625
L149.3768 10.7625
" />
<path d="M163.4768 10.7625
L163.4768 24.8625
" />
<path d="M163.4768 24.8625
L149.3768 24.8625
" />
<path d="M244.6268 48.8625
L258.7268 48.8625
" />
<path d="M244.6268 62.9625
L244.6268 48.8625
" />
<path d="M258.7268 48.8625
L258.7268 62.9625
" />
<path d="M258.7268 62.9625
L244.6268 62.9625
" />
</g>
<g style="fill:#000000; fill-opacity:0.0; 
stroke:#000000; stroke-width:0.0100; stroke-opacity:1; 
stroke-linecap:round; stroke-linejoin:round;">
<circle cx="251.7393" cy="26.9250" r="2.2000" /> 
</g>
<g style="fill:#000000; fill-opacity:0.0; 
stroke:#000000; stroke-width:0.1500; stroke-opacity:1; 
stroke-linecap:round; stroke-linejoin:round;">
<path d="M225.5768 48.8625
L239.6768 48.8625
" />
<path d="M225.5768 62.9625
L225.5768 48.8625
" />
<path d="M239.6768 48.8625
L239.6768 62.9625
" />
<path d="M239.6768 62.9625
L225.5768 62.9625
" />
</g>
<g style="fill:#000000; fill-opacity:0.0; 
stroke:#000000; stroke-width:0.0100; stroke-opacity:1; 
stroke-linecap:round; stroke-linejoin:round;">
<circle cx="104.2393" cy="27.4250" r="2.2000" /> 
</g>
<g style="fill:#000000; fill-opacity:0.0; 
stroke:#000000; stroke-width:0.1500; stroke-opacity:1; 
stroke-linecap:round; stroke-linejoin:round;">
<path d="M82.7018 10.7625
L96.8018 10.7625
" />
<path d="M82.7018 24.8625
L82.7018 10.7625
" />
<path d="M96.8018 10.7625
L96.8018 24.8625
" />
<path d="M96.8018 24.8625
L82.7018 24.8625
" />
<path d="M235.1018 10.7625
L249.2018 10.7625
" />
<path d="M235.1018 24.8625
L235.1018 10.7625
" />
<path d="M249.2018 10.7625
L249.2018 24.8625
" />
<path d="M249.2018 24.8625
L235.1018 24.8625
" />
<path d="M263.6768 48.8625
L277.7768 48.8625
" />
<path d="M263.6768 62.9625
L263.6768 48.8625
" />
<path d="M277.7768 48.8625
L277.7768 62.9625
" />
<path d="M277.7768 62.9625
L263.6768 62.9625
" />
<path d="M20.7893 67.9125
L34.8893 67.9125
" />
<path d="M20.7893 82.0125
L20.7893 67.9125
" />
<path d="M34.8893 67.9125
L34.8893 82.0125
" />
<path d="M34.8893 82.0125
L20.7893 82.0125
" />
</g>
<g style="fill:#000000; fill-opacity:0.0; 
stroke:#000000; stroke-width:0.0100; stroke-opacity:1; 
stroke-linecap:round; stroke-linejoin:round;">
<circle cx="189.7393" cy="45.9250" r="2.2000" /> 
</g>
<g style="fill:#000000; fill-opacity:0.0; 
stroke:#000000; stroke-width:0.1500; stroke-opacity:1; 
stroke-linecap:round; stroke-linejoin:round;">
<path d="M44.6018 10.7625
L58.7018 10.7625
" />
<path d="M44.6018 24.8625
L44.6018 10.7625
" />
<path d="M58.7018 10.7625
L58.7018 24.8625
" />
<path d="M58.7018 24.8625
L44.6018 24.8625
" />
<path d="M89.8455 67.9125
L103.9455 67.9125
" />
<path d="M89.8455 82.0125
L89.8455 67.9125
" />
<path d="M103.9455 67.9125
L103.9455 82.0125
" />
<path d="M103.9455 82.0125
L89.8455 82.0125
" />
<path d="M111.2768 48.8625
L125.3768 48.8625
" />
<path d="M111.2768 62.9625
L111.2768 48.8625
" />
<path d="M125.3768 48.8625
L125.3768 62.9625
" />
<path d="M125.3768 62.9625
L111.2768 62.9625
" />
<path d="M154.1393 29.8125
L168.2393 29.8125
" />
<path d="M154.1393 43.9125
L154.1393 29.8125
" />
<path d="M168.2393 29.8125
L168.2393 43.9125
" />
<path d="M168.2393 43.9125
L154.1393 43.9125
" />
<path d="M301.7768 48.8625
L315.8768 48.8625
" />
<path d="M301.7768 62.9625
L301.7768 48.8625
" />
<path d="M315.8768 48.8625
L315.8768 62.9625
" />
<path d="M315.8768 62.9625
L301.7768 62.9625
" />
</g>
<g style="fill:#000000; fill-opacity:0.0; 
stroke:#000000; stroke-width:0.0100; stroke-opacity:1; 
stroke-linecap:round; stroke-linejoin:round;">
<circle cx="253.2393" cy="66.9250" r="2.2000" /> 
</g>
<g style="fill:#000000; fill-opacity:0.0; 
stroke:#000000; stroke-width:0.1500; stroke-opacity:1; 
stroke-linecap:round; stroke-linejoin:round;">
<path d="M92.2268 48.8625
L106.3268 48.8625
" />
<path d="M92.2268 62.9625
L92.2268 48.8625
" />
<path d="M106.3268 48.8625
L106.3268 62.9625
" />
<path d="M106.3268 62.9625
L92.2268 62.9625
" />
<path d="M63.6518 10.7625
L77.7518 10.7625
" />
<path d="M63.6518 24.8625
L63.6518 10.7625
" />
<path d="M77.7518 10.7625
L77.7518 24.8625
" />
<path d="M77.7518 24.8625
L63.6518 24.8625
" />
<path d="M254.1518 10.7625
L268.2518 10.7625
" />
<path d="M254.1518 24.8625
L254.1518 10.7625
" />
<path d="M268.2518 10.7625
L268.2518 24.8625
" />
<path d="M268.2518 24.8625
L254.1518 24.8625
" />
<path d="M273.2018 10.7625
L287.3018 10.7625
" />
<path d="M273.2018 24.8625
L273.2018 10.7625
" />
<path d="M287.3018 10.7625
L287.3018 24.8625
" />
<path d="M287.3018 24.8625
L273.2018 24.8625
" />
<path d="M23.1705 29.8125
L37.2705 29.8125
" />
<path d="M23.1705 43.9125
L23.1705 29.8125
" />
<path d="M37.2705 29.8125
L37.2705 43.9125
" />
<path d="M37.2705 43.9125
L23.1705 43.9125
" />
<path d="M49.3643 29.8125
L63.4643 29.8125
" />
<path d="M49.3643 43.9125
L49.3643 29.8125
" />
<path d="M63.4643 29.8125
L63.4643 43.9125
" />
<path d="M63.4643 43.9125
L49.3643 43.9125
" />
<path d="M304.1580 67.9125
L318.2580 67.9125
" />
<path d="M304.1580 82.0125
L304.1580 67.9125
" />
<path d="M318.2580 67.9125
L318.2580 82.0125
" />
<path d="M318.2580 82.0125
L304.1580 82.0125
" />
</g>
<g style="fill:#000000; fill-opacity:0.0; 
stroke:#000000; stroke-width:0.0100; stroke-opacity:1; 
stroke-linecap:round; stroke-linejoin:round;">
<circle cx="340.7393" cy="63.9250" r="2.2000" /> 
</g>
<g style="fill:#000000; fill-opacity:0.0; 
stroke:#000000; stroke-width:0.1500; stroke-opacity:1; 
stroke-linecap:round; stroke-linejoin:round;">
<path d="M158.9018 48.8625
L173.0018 48.8625
" />
<path d="M158.9018 62.9625
L158.9018 48.8625
" />
<path d="M173.0018 48.8625
L173.0018 62.9625
" />
<path d="M173.0018 62.9625
L158.9018 62.9625
" />
</g>
<g style="fill:#000000; fill-opacity:0.0; 
stroke:#000000; stroke-width:0.1200; stroke-opacity:1; 
stroke-linecap:round; stroke-linejoin:round;">
<path d="M319.6205 30.8625
L326.6205 30.8625
" />
<path d="M319.6205 45.6625
L319.6205 30.8625
" />
<path d="M326.6205 30.8625
L326.6205 45.6625
" />
<path d="M326.6205 45.6625
L319.6205 45.6625
" />
</g>
<g style="fill:#000000; fill-opacity:0.0; 
stroke:#000000; stroke-width:0.1500; stroke-opacity:1; 
stroke-linecap:round; stroke-linejoin:round;">
<path d="M327.9705 29.8125
L342.0705 29.8125
" />
<path d="M327.9705 43.9125
L327.9705 29.8125
" />
<path d="M342.0705 29.8125
L342.0705 43.9125
" />
<path d="M342.0705 43.9125
L327.9705 43.9125
" />
</g>
<g style="fill:#000000; fill-opacity:0.0; 
stroke:#000000; stroke-width:0.1200; stroke-opacity:1; 
stroke-linecap:round; stroke-linejoin:round;">
<path d="M343.4205 30.8625
L343.4205 45.6625
" />
<path d="M343.4205 45.6625
L350.4205 45.6625
" />
<path d="M350.4205 30.8625
L343.4205 30.8625
" />
<path d="M350.4205 45.6625
L350.4205 30.8625
" />
<g >
</g>
<g >
</g>
<g >
</g>
<g >
</g>
<g >
</g>
<g >
</g>
<g >
</g>
<g >
</g>
<g >
</g>
<g >
</g>
<g >
</g>
<g >
</g>
<g >
</g>
<g >
</g>
<g >
</g>
<g >
</g>
<g >
</g>
<g >
</g>
<g >
</g>
<g >
</g>
<g >
</g>
<g >
</g>
<g >
</g>
<g >
</g>
<g >
</g>
<g >
</g>
<g >
</g>
<g >
</g>
<g >
</g>
<g >
</g>
<g >
</g>
<g >
</g>
<g >
</g>
<g >
</g>
<g >
</g>
<g >
</g>
<g >
</g>
<g >
</g>
<g >
</g>
<g >
</g>
<g >
</g>
<g >
</g>
<g >
</g>
<g >
</g>
<g >
</g>
<g >
</g>
<g >
</g>
<g >
</g>
<g >
</g>
<g >
</g>
<g >
</g>
<g >
</g>
<g >
</g>
<g >
</g>
<g >
</g>
<g >
</g>
<g >
</g>
<g >
</g>
<g >
</g>
<g >
</g>
<g >
</g>
<g >
</g>
<g >
</g>
<g >
</g>
<g >
</g>
<g >
</g>
<g >
</g>
<g >
</g>
<g >
</g>
<g >
</g>
<g >
</g>
</g> 
</svg>
