<?xml version="1.0" standalone="no"?>
 <!DOCTYPE svg PUBLIC "-//W3C//DTD SVG 1.1//EN" 
 "http://www.w3.org/Graphics/SVG/1.1/DTD/svg11.dtd"> 
<svg
  xmlns:svg="http://www.w3.org/2000/svg"
  xmlns="http://www.w3.org/2000/svg"
  xmlns:xlink="http://www.w3.org/1999/xlink"
  version="1.1"
  width="376.0978mm" height="86.5886mm" viewBox="0.0000 0.0000 376.0978 86.5886">
<title>SVG Image created as KeeBar_MiddlePlate-brd.svg date 2024/01/06 23:21:05 </title>
  <desc>Image generated by PCBNEW </desc>
<g style="fill:#000000; fill-opacity:1.0000;stroke:#000000; stroke-opacity:1.0000;
stroke-linecap:round; stroke-linejoin:round;"
 transform="translate(0 0) scale(1 1)">
</g>
<g style="fill:#000000; fill-opacity:0.0; 
stroke:#000000; stroke-width:0.0000; stroke-opacity:1; 
stroke-linecap:round; stroke-linejoin:round;">
</g>
<g style="fill:#000000; fill-opacity:0.0; 
stroke:#000000; stroke-width:0.1000; stroke-opacity:1; 
stroke-linecap:round; stroke-linejoin:round;">
<path d="M1.0500 0.0500
L353.0500 0.0500
" />
<path d="M376.0500 1.0500 A1.0000 1.0000 0.0 0 0 375.0500 0.0500" />
<path d="M1.0500 0.0500 A1.0000 1.0000 0.0 0 0 0.0500 1.0500" />
<path d="M365.0500 0.0500
L375.0500 0.0500
" />
<path d="M375.0500 86.5500 A1.0000 1.0000 0.0 0 0 376.0500 85.5500" />
<path d="M376.0500 1.0500
L376.0500 85.5500
" />
<path d="M353.0500 0.0500
L353.0500 21.1000
" />
<path d="M0.0500 85.5500 A1.0000 1.0000 0.0 0 0 1.0500 86.5500" />
</g>
<g style="fill:#000000; fill-opacity:1.0000; 
stroke:#000000; stroke-width:0.0000; stroke-opacity:1; 
stroke-linecap:round; stroke-linejoin:round;">
<circle cx="353.0500" cy="0.0500" r="0.0500" /> 
<circle cx="353.0500" cy="0.0500" r="0.0500" /> 
</g>
<g style="fill:#000000; fill-opacity:1.0000; 
stroke:#000000; stroke-width:0.1000; stroke-opacity:1; 
stroke-linecap:round; stroke-linejoin:round;">
</g>
<g style="fill:#000000; fill-opacity:0.0; 
stroke:#000000; stroke-width:0.1000; stroke-opacity:1; 
stroke-linecap:round; stroke-linejoin:round;">
<path d="M0.0500 85.5500
L0.0500 1.0500
" />
<path d="M353.0500 21.1000
L365.0500 21.1000
" />
<path d="M365.0500 21.1000
L365.0500 0.0500
" />
<path d="M375.0500 86.5500
L1.0500 86.5500
" />
</g>
<g style="fill:#000000; fill-opacity:0.0; 
stroke:#000000; stroke-width:0.0500; stroke-opacity:1; 
stroke-linecap:round; stroke-linejoin:round;">
<circle cx="335.7692" cy="40.2125" r="2.0000" /> 
</g>
<g style="fill:#000000; fill-opacity:0.0; 
stroke:#000000; stroke-width:0.1000; stroke-opacity:1; 
stroke-linecap:round; stroke-linejoin:round;">
<circle cx="335.7692" cy="25.0025" r="1.5500" /> 
</g>
<g style="fill:#000000; fill-opacity:0.0; 
stroke:#000000; stroke-width:0.0500; stroke-opacity:1; 
stroke-linecap:round; stroke-linejoin:round;">
<circle cx="311.8932" cy="40.2125" r="2.0000" /> 
</g>
<g style="fill:#000000; fill-opacity:0.0; 
stroke:#000000; stroke-width:0.1000; stroke-opacity:1; 
stroke-linecap:round; stroke-linejoin:round;">
<circle cx="311.8932" cy="25.0025" r="1.5500" /> 
<circle cx="226.2000" cy="81.8350" r="1.5500" /> 
</g>
<g style="fill:#000000; fill-opacity:0.0; 
stroke:#000000; stroke-width:0.0500; stroke-opacity:1; 
stroke-linecap:round; stroke-linejoin:round;">
<circle cx="226.2000" cy="66.6250" r="2.0000" /> 
</g>
<g style="fill:#000000; fill-opacity:0.0; 
stroke:#000000; stroke-width:0.1000; stroke-opacity:1; 
stroke-linecap:round; stroke-linejoin:round;">
<circle cx="111.9000" cy="81.8350" r="1.5500" /> 
</g>
<g style="fill:#000000; fill-opacity:0.0; 
stroke:#000000; stroke-width:0.0500; stroke-opacity:1; 
stroke-linecap:round; stroke-linejoin:round;">
<circle cx="111.9000" cy="66.6250" r="2.0000" /> 
</g>
<g style="fill:#000000; fill-opacity:0.0; 
stroke:#000000; stroke-width:0.1000; stroke-opacity:1; 
stroke-linecap:round; stroke-linejoin:round;">
<circle cx="219.0500" cy="81.8350" r="1.5500" /> 
</g>
<g style="fill:#000000; fill-opacity:0.0; 
stroke:#000000; stroke-width:0.0500; stroke-opacity:1; 
stroke-linecap:round; stroke-linejoin:round;">
<circle cx="219.0500" cy="66.6250" r="2.0000" /> 
</g>
<g style="fill:#000000; fill-opacity:0.0; 
stroke:#000000; stroke-width:0.1000; stroke-opacity:1; 
stroke-linecap:round; stroke-linejoin:round;">
<circle cx="119.0500" cy="81.8350" r="1.5500" /> 
</g>
<g style="fill:#000000; fill-opacity:0.0; 
stroke:#000000; stroke-width:0.0500; stroke-opacity:1; 
stroke-linecap:round; stroke-linejoin:round;">
<circle cx="119.0500" cy="66.6250" r="2.0000" /> 
</g>
<g style="fill:#000000; fill-opacity:0.0; 
stroke:#000000; stroke-width:0.1000; stroke-opacity:1; 
stroke-linecap:round; stroke-linejoin:round;">
<circle cx="226.2317" cy="81.8350" r="1.5500" /> 
</g>
<g style="fill:#000000; fill-opacity:0.0; 
stroke:#000000; stroke-width:0.0500; stroke-opacity:1; 
stroke-linecap:round; stroke-linejoin:round;">
<circle cx="226.2317" cy="66.6250" r="2.0000" /> 
</g>
<g style="fill:#000000; fill-opacity:0.0; 
stroke:#000000; stroke-width:0.1000; stroke-opacity:1; 
stroke-linecap:round; stroke-linejoin:round;">
<circle cx="202.3558" cy="81.8350" r="1.5500" /> 
</g>
<g style="fill:#000000; fill-opacity:0.0; 
stroke:#000000; stroke-width:0.0500; stroke-opacity:1; 
stroke-linecap:round; stroke-linejoin:round;">
<circle cx="202.3558" cy="66.6250" r="2.0000" /> 
</g>
<g style="fill:#000000; fill-opacity:0.0; 
stroke:#000000; stroke-width:0.1000; stroke-opacity:1; 
stroke-linecap:round; stroke-linejoin:round;">
<circle cx="9.4745" cy="44.0525" r="1.5500" /> 
</g>
<g style="fill:#000000; fill-opacity:0.0; 
stroke:#000000; stroke-width:0.0500; stroke-opacity:1; 
stroke-linecap:round; stroke-linejoin:round;">
<circle cx="9.4745" cy="59.2625" r="2.0000" /> 
</g>
<g style="fill:#000000; fill-opacity:0.0; 
stroke:#000000; stroke-width:0.1000; stroke-opacity:1; 
stroke-linecap:round; stroke-linejoin:round;">
<circle cx="33.3505" cy="44.0525" r="1.5500" /> 
</g>
<g style="fill:#000000; fill-opacity:0.0; 
stroke:#000000; stroke-width:0.0500; stroke-opacity:1; 
stroke-linecap:round; stroke-linejoin:round;">
<circle cx="33.3505" cy="59.2625" r="2.0000" /> 
</g>
<g style="fill:#000000; fill-opacity:0.0; 
stroke:#000000; stroke-width:0.1000; stroke-opacity:1; 
stroke-linecap:round; stroke-linejoin:round;">
<circle cx="185.7505" cy="81.8350" r="1.5500" /> 
</g>
<g style="fill:#000000; fill-opacity:0.0; 
stroke:#000000; stroke-width:0.0500; stroke-opacity:1; 
stroke-linecap:round; stroke-linejoin:round;">
<circle cx="185.7505" cy="66.6250" r="2.0000" /> 
</g>
<g style="fill:#000000; fill-opacity:0.0; 
stroke:#000000; stroke-width:0.1000; stroke-opacity:1; 
stroke-linecap:round; stroke-linejoin:round;">
<circle cx="161.8745" cy="81.8350" r="1.5500" /> 
</g>
<g style="fill:#000000; fill-opacity:0.0; 
stroke:#000000; stroke-width:0.0500; stroke-opacity:1; 
stroke-linecap:round; stroke-linejoin:round;">
<circle cx="161.8745" cy="66.6250" r="2.0000" /> 
</g>
<g style="fill:#000000; fill-opacity:0.0; 
stroke:#000000; stroke-width:0.1000; stroke-opacity:1; 
stroke-linecap:round; stroke-linejoin:round;">
<circle cx="140.5067" cy="81.8350" r="1.5500" /> 
</g>
<g style="fill:#000000; fill-opacity:0.0; 
stroke:#000000; stroke-width:0.0500; stroke-opacity:1; 
stroke-linecap:round; stroke-linejoin:round;">
<circle cx="140.5067" cy="66.6250" r="2.0000" /> 
</g>
<g style="fill:#000000; fill-opacity:0.0; 
stroke:#000000; stroke-width:0.1000; stroke-opacity:1; 
stroke-linecap:round; stroke-linejoin:round;">
<circle cx="116.6307" cy="81.8350" r="1.5500" /> 
</g>
<g style="fill:#000000; fill-opacity:0.0; 
stroke:#000000; stroke-width:0.0500; stroke-opacity:1; 
stroke-linecap:round; stroke-linejoin:round;">
<circle cx="116.6307" cy="66.6250" r="2.0000" /> 
<circle cx="340.0500" cy="22.5500" r="2.1000" /> 
<circle cx="95.5500" cy="22.5500" r="2.1000" /> 
<circle cx="265.5500" cy="65.3500" r="2.1000" /> 
<circle cx="28.5500" cy="22.5500" r="2.1000" /> 
<circle cx="183.5500" cy="44.0500" r="2.1000" /> 
<circle cx="95.5500" cy="65.3500" r="2.1000" /> 
<circle cx="340.0500" cy="65.3500" r="2.1000" /> 
<circle cx="265.5500" cy="22.5500" r="2.1000" /> 
<circle cx="28.5500" cy="65.3500" r="2.1000" /> 
<path d="M10.4313 24.9875
L26.3312 24.9875
" />
<path d="M26.3312 24.9875
L26.3312 31.3875
" />
<path d="M26.3312 31.3875
L10.4313 31.3875
" />
<path d="M10.4313 31.3875
L10.4313 24.9875
" />
<path d="M160.4500 67.8500
L176.3500 67.8500
" />
<path d="M176.3500 67.8500
L176.3500 74.2500
" />
<path d="M176.3500 74.2500
L160.4500 74.2500
" />
<path d="M160.4500 74.2500
L160.4500 67.8500
" />
<path d="M137.1687 81.8500
L121.2687 81.8500
" />
<path d="M121.2687 81.8500
L121.2687 75.4500
" />
<path d="M121.2687 75.4500
L137.1687 75.4500
" />
<path d="M137.1687 75.4500
L137.1687 81.8500
" />
<path d="M182.4125 81.8500
L166.5125 81.8500
" />
<path d="M166.5125 81.8500
L166.5125 75.4500
" />
<path d="M166.5125 75.4500
L182.4125 75.4500
" />
<path d="M182.4125 75.4500
L182.4125 81.8500
" />
<path d="M12.8125 44.0375
L28.7125 44.0375
" />
<path d="M28.7125 44.0375
L28.7125 50.4375
" />
<path d="M28.7125 50.4375
L12.8125 50.4375
" />
<path d="M12.8125 50.4375
L12.8125 44.0375
" />
<path d="M243.7937 63.0875
L259.6937 63.0875
" />
<path d="M259.6937 63.0875
L259.6937 69.4875
" />
<path d="M259.6937 69.4875
L243.7937 69.4875
" />
<path d="M243.7937 69.4875
L243.7937 63.0875
" />
<path d="M310.4688 44.0375
L326.3687 44.0375
" />
<path d="M326.3687 44.0375
L326.3687 50.4375
" />
<path d="M326.3687 50.4375
L310.4688 50.4375
" />
<path d="M310.4688 50.4375
L310.4688 44.0375
" />
<path d="M267.6062 63.0875
L283.5062 63.0875
" />
<path d="M283.5062 63.0875
L283.5062 69.4875
" />
<path d="M283.5062 69.4875
L267.6062 69.4875
" />
<path d="M267.6062 69.4875
L267.6062 63.0875
" />
<path d="M53.2937 63.0875
L69.1937 63.0875
" />
<path d="M69.1937 63.0875
L69.1937 69.4875
" />
<path d="M69.1937 69.4875
L53.2937 69.4875
" />
<path d="M53.2937 69.4875
L53.2937 63.0875
" />
<path d="M77.1063 63.0875
L93.0062 63.0875
" />
<path d="M93.0062 63.0875
L93.0062 69.4875
" />
<path d="M93.0062 69.4875
L77.1063 69.4875
" />
<path d="M77.1063 69.4875
L77.1063 63.0875
" />
<path d="M291.4187 63.0875
L307.3187 63.0875
" />
<path d="M307.3187 63.0875
L307.3187 69.4875
" />
<path d="M307.3187 69.4875
L291.4187 69.4875
" />
<path d="M291.4187 69.4875
L291.4187 63.0875
" />
<path d="M222.8937 81.8500
L206.9937 81.8500
" />
<path d="M206.9937 81.8500
L206.9937 75.4500
" />
<path d="M206.9937 75.4500
L222.8937 75.4500
" />
<path d="M222.8937 75.4500
L222.8937 81.8500
" />
<path d="M315.2312 24.9875
L331.1312 24.9875
" />
<path d="M331.1312 24.9875
L331.1312 31.3875
" />
<path d="M331.1312 31.3875
L315.2312 31.3875
" />
<path d="M315.2312 31.3875
L315.2312 24.9875
" />
<path d="M322.3750 5.9375
L338.2750 5.9375
" />
<path d="M338.2750 5.9375
L338.2750 12.3375
" />
<path d="M338.2750 12.3375
L322.3750 12.3375
" />
<path d="M322.3750 12.3375
L322.3750 5.9375
" />
<path d="M8.0500 5.9375
L23.9500 5.9375
" />
<path d="M23.9500 5.9375
L23.9500 12.3375
" />
<path d="M23.9500 12.3375
L8.0500 12.3375
" />
<path d="M8.0500 12.3375
L8.0500 5.9375
" />
<path d="M320.5500 19.9375
L304.6500 19.9375
" />
<path d="M304.6500 19.9375
L304.6500 13.5375
" />
<path d="M304.6500 13.5375
L320.5500 13.5375
" />
<path d="M320.5500 13.5375
L320.5500 19.9375
" />
<path d="M8.0500 63.0875
L23.9500 63.0875
" />
<path d="M23.9500 63.0875
L23.9500 69.4875
" />
<path d="M23.9500 69.4875
L8.0500 69.4875
" />
<path d="M8.0500 69.4875
L8.0500 63.0875
" />
<path d="M284.2750 24.9875
L300.1750 24.9875
" />
<path d="M300.1750 24.9875
L300.1750 31.3875
" />
<path d="M300.1750 31.3875
L284.2750 31.3875
" />
<path d="M284.2750 31.3875
L284.2750 24.9875
" />
<path d="M89.0125 5.9375
L104.9125 5.9375
" />
<path d="M104.9125 5.9375
L104.9125 12.3375
" />
<path d="M104.9125 12.3375
L89.0125 12.3375
" />
<path d="M89.0125 12.3375
L89.0125 5.9375
" />
<path d="M246.1750 24.9875
L262.0750 24.9875
" />
<path d="M262.0750 24.9875
L262.0750 31.3875
" />
<path d="M262.0750 31.3875
L246.1750 31.3875
" />
<path d="M246.1750 31.3875
L246.1750 24.9875
" />
<path d="M179.5000 24.9875
L195.4000 24.9875
" />
<path d="M195.4000 24.9875
L195.4000 31.3875
" />
<path d="M195.4000 31.3875
L179.5000 31.3875
" />
<path d="M179.5000 31.3875
L179.5000 24.9875
" />
<path d="M117.5875 44.0375
L133.4875 44.0375
" />
<path d="M133.4875 44.0375
L133.4875 50.4375
" />
<path d="M133.4875 50.4375
L117.5875 50.4375
" />
<path d="M117.5875 50.4375
L117.5875 44.0375
" />
<path d="M279.5125 5.9375
L295.4125 5.9375
" />
<path d="M295.4125 5.9375
L295.4125 12.3375
" />
<path d="M295.4125 12.3375
L279.5125 12.3375
" />
<path d="M279.5125 12.3375
L279.5125 5.9375
" />
<path d="M336.6625 67.8500
L352.5625 67.8500
" />
<path d="M352.5625 67.8500
L352.5625 74.2500
" />
<path d="M352.5625 74.2500
L336.6625 74.2500
" />
<path d="M336.6625 74.2500
L336.6625 67.8500
" />
<path d="M184.2625 44.0375
L200.1625 44.0375
" />
<path d="M200.1625 44.0375
L200.1625 50.4375
" />
<path d="M200.1625 50.4375
L184.2625 50.4375
" />
<path d="M184.2625 50.4375
L184.2625 44.0375
" />
<path d="M203.3125 5.9375
L219.2125 5.9375
" />
<path d="M219.2125 5.9375
L219.2125 12.3375
" />
<path d="M219.2125 12.3375
L203.3125 12.3375
" />
<path d="M203.3125 12.3375
L203.3125 5.9375
" />
<path d="M74.7250 24.9875
L90.6250 24.9875
" />
<path d="M90.6250 24.9875
L90.6250 31.3875
" />
<path d="M90.6250 31.3875
L74.7250 31.3875
" />
<path d="M74.7250 31.3875
L74.7250 24.9875
" />
<path d="M265.2250 24.9875
L281.1250 24.9875
" />
<path d="M281.1250 24.9875
L281.1250 31.3875
" />
<path d="M281.1250 31.3875
L265.2250 31.3875
" />
<path d="M265.2250 31.3875
L265.2250 24.9875
" />
<path d="M60.4375 44.0375
L76.3375 44.0375
" />
<path d="M76.3375 44.0375
L76.3375 50.4375
" />
<path d="M76.3375 50.4375
L60.4375 50.4375
" />
<path d="M60.4375 50.4375
L60.4375 44.0375
" />
<path d="M269.9875 44.0375
L285.8875 44.0375
" />
<path d="M285.8875 44.0375
L285.8875 50.4375
" />
<path d="M285.8875 50.4375
L269.9875 50.4375
" />
<path d="M269.9875 50.4375
L269.9875 44.0375
" />
<path d="M165.2125 44.0375
L181.1125 44.0375
" />
<path d="M181.1125 44.0375
L181.1125 50.4375
" />
<path d="M181.1125 50.4375
L165.2125 50.4375
" />
<path d="M165.2125 50.4375
L165.2125 44.0375
" />
<path d="M93.7750 24.9875
L109.6750 24.9875
" />
<path d="M109.6750 24.9875
L109.6750 31.3875
" />
<path d="M109.6750 31.3875
L93.7750 31.3875
" />
<path d="M93.7750 31.3875
L93.7750 24.9875
" />
<path d="M317.6125 67.8500
L333.5125 67.8500
" />
<path d="M333.5125 67.8500
L333.5125 74.2500
" />
<path d="M333.5125 74.2500
L317.6125 74.2500
" />
<path d="M317.6125 74.2500
L317.6125 67.8500
" />
<path d="M298.5625 5.9375
L314.4625 5.9375
" />
<path d="M314.4625 5.9375
L314.4625 12.3375
" />
<path d="M314.4625 12.3375
L298.5625 12.3375
" />
<path d="M298.5625 12.3375
L298.5625 5.9375
" />
<path d="M55.6750 24.9875
L71.5750 24.9875
" />
<path d="M71.5750 24.9875
L71.5750 31.3875
" />
<path d="M71.5750 31.3875
L55.6750 31.3875
" />
<path d="M55.6750 31.3875
L55.6750 24.9875
" />
<path d="M31.8625 63.0875
L47.7625 63.0875
" />
<path d="M47.7625 63.0875
L47.7625 69.4875
" />
<path d="M47.7625 69.4875
L31.8625 69.4875
" />
<path d="M31.8625 69.4875
L31.8625 63.0875
" />
<path d="M41.3875 44.0375
L57.2875 44.0375
" />
<path d="M57.2875 44.0375
L57.2875 50.4375
" />
<path d="M57.2875 50.4375
L41.3875 50.4375
" />
<path d="M41.3875 50.4375
L41.3875 44.0375
" />
<path d="M155.6875 5.9375
L171.5875 5.9375
" />
<path d="M171.5875 5.9375
L171.5875 12.3375
" />
<path d="M171.5875 12.3375
L155.6875 12.3375
" />
<path d="M155.6875 12.3375
L155.6875 5.9375
" />
<path d="M208.0750 24.9875
L223.9750 24.9875
" />
<path d="M223.9750 24.9875
L223.9750 31.3875
" />
<path d="M223.9750 31.3875
L208.0750 31.3875
" />
<path d="M208.0750 31.3875
L208.0750 24.9875
" />
<path d="M336.6625 48.8000
L352.5625 48.8000
" />
<path d="M352.5625 48.8000
L352.5625 55.2000
" />
<path d="M352.5625 55.2000
L336.6625 55.2000
" />
<path d="M336.6625 55.2000
L336.6625 48.8000
" />
<path d="M227.1250 24.9875
L243.0250 24.9875
" />
<path d="M243.0250 24.9875
L243.0250 31.3875
" />
<path d="M243.0250 31.3875
L227.1250 31.3875
" />
<path d="M227.1250 31.3875
L227.1250 24.9875
" />
<path d="M108.0625 5.9375
L123.9625 5.9375
" />
<path d="M123.9625 5.9375
L123.9625 12.3375
" />
<path d="M123.9625 12.3375
L108.0625 12.3375
" />
<path d="M108.0625 12.3375
L108.0625 5.9375
" />
<path d="M112.8250 24.9875
L128.7250 24.9875
" />
<path d="M128.7250 24.9875
L128.7250 31.3875
" />
<path d="M128.7250 31.3875
L112.8250 31.3875
" />
<path d="M112.8250 31.3875
L112.8250 24.9875
" />
<path d="M344.3625 19.9375
L328.4625 19.9375
" />
<path d="M328.4625 19.9375
L328.4625 13.5375
" />
<path d="M328.4625 13.5375
L344.3625 13.5375
" />
<path d="M344.3625 13.5375
L344.3625 19.9375
" />
<path d="M174.7375 5.9375
L190.6375 5.9375
" />
<path d="M190.6375 5.9375
L190.6375 12.3375
" />
<path d="M190.6375 12.3375
L174.7375 12.3375
" />
<path d="M174.7375 12.3375
L174.7375 5.9375
" />
<path d="M160.4500 24.9875
L176.3500 24.9875
" />
<path d="M176.3500 24.9875
L176.3500 31.3875
" />
<path d="M176.3500 31.3875
L160.4500 31.3875
" />
<path d="M160.4500 31.3875
L160.4500 24.9875
" />
<path d="M355.7125 67.8500
L371.6125 67.8500
" />
<path d="M371.6125 67.8500
L371.6125 74.2500
" />
<path d="M371.6125 74.2500
L355.7125 74.2500
" />
<path d="M355.7125 74.2500
L355.7125 67.8500
" />
<path d="M136.6375 5.9375
L152.5375 5.9375
" />
<path d="M152.5375 5.9375
L152.5375 12.3375
" />
<path d="M152.5375 12.3375
L136.6375 12.3375
" />
<path d="M136.6375 12.3375
L136.6375 5.9375
" />
<path d="M231.8875 44.0375
L247.7875 44.0375
" />
<path d="M247.7875 44.0375
L247.7875 50.4375
" />
<path d="M247.7875 50.4375
L231.8875 50.4375
" />
<path d="M231.8875 50.4375
L231.8875 44.0375
" />
<path d="M212.8375 44.0375
L228.7375 44.0375
" />
<path d="M228.7375 44.0375
L228.7375 50.4375
" />
<path d="M228.7375 50.4375
L212.8375 50.4375
" />
<path d="M212.8375 50.4375
L212.8375 44.0375
" />
<path d="M69.9625 5.9375
L85.8625 5.9375
" />
<path d="M85.8625 5.9375
L85.8625 12.3375
" />
<path d="M85.8625 12.3375
L69.9625 12.3375
" />
<path d="M69.9625 12.3375
L69.9625 5.9375
" />
<path d="M222.3625 5.9375
L238.2625 5.9375
" />
<path d="M238.2625 5.9375
L238.2625 12.3375
" />
<path d="M238.2625 12.3375
L222.3625 12.3375
" />
<path d="M222.3625 12.3375
L222.3625 5.9375
" />
<path d="M250.9375 44.0375
L266.8375 44.0375
" />
<path d="M266.8375 44.0375
L266.8375 50.4375
" />
<path d="M266.8375 50.4375
L250.9375 50.4375
" />
<path d="M250.9375 50.4375
L250.9375 44.0375
" />
<path d="M31.8625 5.9375
L47.7625 5.9375
" />
<path d="M47.7625 5.9375
L47.7625 12.3375
" />
<path d="M47.7625 12.3375
L31.8625 12.3375
" />
<path d="M31.8625 12.3375
L31.8625 5.9375
" />
<path d="M98.5375 44.0375
L114.4375 44.0375
" />
<path d="M114.4375 44.0375
L114.4375 50.4375
" />
<path d="M114.4375 50.4375
L98.5375 50.4375
" />
<path d="M98.5375 50.4375
L98.5375 44.0375
" />
<path d="M141.4000 24.9875
L157.3000 24.9875
" />
<path d="M157.3000 24.9875
L157.3000 31.3875
" />
<path d="M157.3000 31.3875
L141.4000 31.3875
" />
<path d="M141.4000 31.3875
L141.4000 24.9875
" />
<path d="M289.0375 44.0375
L304.9375 44.0375
" />
<path d="M304.9375 44.0375
L304.9375 50.4375
" />
<path d="M304.9375 50.4375
L289.0375 50.4375
" />
<path d="M289.0375 50.4375
L289.0375 44.0375
" />
<path d="M79.4875 44.0375
L95.3875 44.0375
" />
<path d="M95.3875 44.0375
L95.3875 50.4375
" />
<path d="M95.3875 50.4375
L79.4875 50.4375
" />
<path d="M79.4875 50.4375
L79.4875 44.0375
" />
<path d="M50.9125 5.9375
L66.8125 5.9375
" />
<path d="M66.8125 5.9375
L66.8125 12.3375
" />
<path d="M66.8125 12.3375
L50.9125 12.3375
" />
<path d="M50.9125 12.3375
L50.9125 5.9375
" />
<path d="M241.4125 5.9375
L257.3125 5.9375
" />
<path d="M257.3125 5.9375
L257.3125 12.3375
" />
<path d="M257.3125 12.3375
L241.4125 12.3375
" />
<path d="M241.4125 12.3375
L241.4125 5.9375
" />
<path d="M260.4625 5.9375
L276.3625 5.9375
" />
<path d="M276.3625 5.9375
L276.3625 12.3375
" />
<path d="M276.3625 12.3375
L260.4625 12.3375
" />
<path d="M260.4625 12.3375
L260.4625 5.9375
" />
<path d="M36.6250 24.9875
L52.5250 24.9875
" />
<path d="M52.5250 24.9875
L52.5250 31.3875
" />
<path d="M52.5250 31.3875
L36.6250 31.3875
" />
<path d="M36.6250 31.3875
L36.6250 24.9875
" />
<path d="M146.1625 44.0375
L162.0625 44.0375
" />
<path d="M162.0625 44.0375
L162.0625 50.4375
" />
<path d="M162.0625 50.4375
L146.1625 50.4375
" />
<path d="M146.1625 50.4375
L146.1625 44.0375
" />
<path d="M59.6437 77.3287
L64.1437 77.3287
" />
<path d="M64.1437 77.3287
L64.1437 75.2287
" />
<path d="M64.1437 75.2287
L59.6437 75.2287
" />
<path d="M59.6437 75.2287
L59.6437 77.3287
" />
<path d="M250.1437 77.3287
L254.6437 77.3287
" />
<path d="M254.6437 77.3287
L254.6437 75.2287
" />
<path d="M254.6437 75.2287
L250.1437 75.2287
" />
<path d="M250.1437 75.2287
L250.1437 77.3287
" />
<path d="M290.6250 39.2287
L295.1250 39.2287
" />
<path d="M295.1250 39.2287
L295.1250 37.1287
" />
<path d="M295.1250 37.1287
L290.6250 37.1287
" />
<path d="M290.6250 37.1287
L290.6250 39.2287
" />
<path d="M154.8937 80.6625
L159.3937 80.6625
" />
<path d="M159.3937 80.6625
L159.3937 78.5625
" />
<path d="M159.3937 78.5625
L154.8937 78.5625
" />
<path d="M154.8937 78.5625
L154.8937 80.6625
" />
<path d="M162.0375 20.1788
L166.5375 20.1788
" />
<path d="M166.5375 20.1788
L166.5375 18.0787
" />
<path d="M166.5375 18.0787
L162.0375 18.0787
" />
<path d="M162.0375 18.0787
L162.0375 20.1788
" />
<path d="M257.2875 58.2787
L261.7875 58.2787
" />
<path d="M261.7875 58.2787
L261.7875 56.1788
" />
<path d="M261.7875 56.1788
L257.2875 56.1788
" />
<path d="M257.2875 56.1788
L257.2875 58.2787
" />
<path d="M119.1750 39.2287
L123.6750 39.2287
" />
<path d="M123.6750 39.2287
L123.6750 37.1287
" />
<path d="M123.6750 37.1287
L119.1750 37.1287
" />
<path d="M119.1750 37.1287
L119.1750 39.2287
" />
<path d="M252.5250 39.2287
L257.0250 39.2287
" />
<path d="M257.0250 39.2287
L257.0250 37.1287
" />
<path d="M257.0250 37.1287
L252.5250 37.1287
" />
<path d="M252.5250 37.1287
L252.5250 39.2287
" />
<path d="M38.2125 20.1788
L42.7125 20.1788
" />
<path d="M42.7125 20.1788
L42.7125 18.0787
" />
<path d="M42.7125 18.0787
L38.2125 18.0787
" />
<path d="M38.2125 18.0787
L38.2125 20.1788
" />
<path d="M273.9563 77.3287
L278.4563 77.3287
" />
<path d="M278.4563 77.3287
L278.4563 75.2287
" />
<path d="M278.4563 75.2287
L273.9563 75.2287
" />
<path d="M273.9563 75.2287
L273.9563 77.3287
" />
<path d="M142.9875 20.1788
L147.4875 20.1788
" />
<path d="M147.4875 20.1788
L147.4875 18.0787
" />
<path d="M147.4875 18.0787
L142.9875 18.0787
" />
<path d="M142.9875 18.0787
L142.9875 20.1788
" />
<path d="M83.4562 77.3287
L87.9562 77.3287
" />
<path d="M87.9562 77.3287
L87.9562 75.2287
" />
<path d="M87.9562 75.2287
L83.4562 75.2287
" />
<path d="M83.4562 75.2287
L83.4562 77.3287
" />
<path d="M343.0125 63.0412
L347.5125 63.0412
" />
<path d="M347.5125 63.0412
L347.5125 60.9412
" />
<path d="M347.5125 60.9412
L343.0125 60.9412
" />
<path d="M343.0125 60.9412
L343.0125 63.0412
" />
<path d="M147.7500 39.2287
L152.2500 39.2287
" />
<path d="M152.2500 39.2287
L152.2500 37.1287
" />
<path d="M152.2500 37.1287
L147.7500 37.1287
" />
<path d="M147.7500 37.1287
L147.7500 39.2287
" />
<path d="M42.9750 39.2287
L47.4750 39.2287
" />
<path d="M47.4750 39.2287
L47.4750 37.1287
" />
<path d="M47.4750 37.1287
L42.9750 37.1287
" />
<path d="M42.9750 37.1287
L42.9750 39.2287
" />
<path d="M314.5000 22.5000
L319.0000 22.5000
" />
<path d="M319.0000 22.5000
L319.0000 20.4000
" />
<path d="M319.0000 20.4000
L314.5000 20.4000
" />
<path d="M314.5000 20.4000
L314.5000 22.5000
" />
<path d="M57.2625 20.1788
L61.7625 20.1788
" />
<path d="M61.7625 20.1788
L61.7625 18.0787
" />
<path d="M61.7625 18.0787
L57.2625 18.0787
" />
<path d="M57.2625 18.0787
L57.2625 20.1788
" />
<path d="M276.3375 58.2787
L280.8375 58.2787
" />
<path d="M280.8375 58.2787
L280.8375 56.1788
" />
<path d="M280.8375 56.1788
L276.3375 56.1788
" />
<path d="M276.3375 56.1788
L276.3375 58.2787
" />
<path d="M247.7625 20.1788
L252.2625 20.1788
" />
<path d="M252.2625 20.1788
L252.2625 18.0787
" />
<path d="M252.2625 18.0787
L247.7625 18.0787
" />
<path d="M247.7625 18.0787
L247.7625 20.1788
" />
<path d="M14.4000 77.3287
L18.9000 77.3287
" />
<path d="M18.9000 77.3287
L18.9000 75.2287
" />
<path d="M18.9000 75.2287
L14.4000 75.2287
" />
<path d="M14.4000 75.2287
L14.4000 77.3287
" />
<path d="M76.3125 20.1788
L80.8125 20.1788
" />
<path d="M80.8125 20.1788
L80.8125 18.0787
" />
<path d="M80.8125 18.0787
L76.3125 18.0787
" />
<path d="M76.3125 18.0787
L76.3125 20.1788
" />
<path d="M181.0875 20.1788
L185.5875 20.1788
" />
<path d="M185.5875 20.1788
L185.5875 18.0787
" />
<path d="M185.5875 18.0787
L181.0875 18.0787
" />
<path d="M181.0875 18.0787
L181.0875 20.1788
" />
<path d="M104.8875 58.2787
L109.3875 58.2787
" />
<path d="M109.3875 58.2787
L109.3875 56.1788
" />
<path d="M109.3875 56.1788
L104.8875 56.1788
" />
<path d="M104.8875 56.1788
L104.8875 58.2787
" />
<path d="M266.8125 20.1788
L271.3125 20.1788
" />
<path d="M271.3125 20.1788
L271.3125 18.0787
" />
<path d="M271.3125 18.0787
L266.8125 18.0787
" />
<path d="M266.8125 18.0787
L266.8125 20.1788
" />
<path d="M126.3187 71.1375
L130.8187 71.1375
" />
<path d="M130.8187 71.1375
L130.8187 69.0375
" />
<path d="M130.8187 69.0375
L126.3187 69.0375
" />
<path d="M126.3187 69.0375
L126.3187 71.1375
" />
<path d="M343.0125 81.1000
L347.5125 81.1000
" />
<path d="M347.5125 81.1000
L347.5125 79.0000
" />
<path d="M347.5125 79.0000
L343.0125 79.0000
" />
<path d="M343.0125 79.0000
L343.0125 81.1000
" />
<path d="M238.2375 58.2787
L242.7375 58.2787
" />
<path d="M242.7375 58.2787
L242.7375 56.1788
" />
<path d="M242.7375 56.1788
L238.2375 56.1788
" />
<path d="M238.2375 56.1788
L238.2375 58.2787
" />
<path d="M85.8375 58.2787
L90.3375 58.2787
" />
<path d="M90.3375 58.2787
L90.3375 56.1788
" />
<path d="M90.3375 56.1788
L85.8375 56.1788
" />
<path d="M85.8375 56.1788
L85.8375 58.2787
" />
<path d="M66.7875 58.2787
L71.2875 58.2787
" />
<path d="M71.2875 58.2787
L71.2875 56.1788
" />
<path d="M71.2875 56.1788
L66.7875 56.1788
" />
<path d="M66.7875 56.1788
L66.7875 58.2787
" />
<path d="M114.4125 20.1788
L118.9125 20.1788
" />
<path d="M118.9125 20.1788
L118.9125 18.0787
" />
<path d="M118.9125 18.0787
L114.4125 18.0787
" />
<path d="M114.4125 18.0787
L114.4125 20.1788
" />
<path d="M316.8187 58.2787
L321.3187 58.2787
" />
<path d="M321.3187 58.2787
L321.3187 56.1788
" />
<path d="M321.3187 56.1788
L316.8187 56.1788
" />
<path d="M316.8187 56.1788
L316.8187 58.2787
" />
<path d="M123.9375 58.2787
L128.4375 58.2787
" />
<path d="M128.4375 58.2787
L128.4375 56.1788
" />
<path d="M128.4375 56.1788
L123.9375 56.1788
" />
<path d="M123.9375 56.1788
L123.9375 58.2787
" />
<path d="M190.6125 58.2787
L195.1125 58.2787
" />
<path d="M195.1125 58.2787
L195.1125 56.1788
" />
<path d="M195.1125 56.1788
L190.6125 56.1788
" />
<path d="M190.6125 56.1788
L190.6125 58.2787
" />
<path d="M328.7000 22.5000
L333.2000 22.5000
" />
<path d="M333.2000 22.5000
L333.2000 20.4000
" />
<path d="M333.2000 20.4000
L328.7000 20.4000
" />
<path d="M328.7000 20.4000
L328.7000 22.5000
" />
<path d="M297.7688 77.3287
L302.2688 77.3287
" />
<path d="M302.2688 77.3287
L302.2688 75.2287
" />
<path d="M302.2688 75.2287
L297.7688 75.2287
" />
<path d="M297.7688 75.2287
L297.7688 77.3287
" />
<path d="M38.2125 77.3287
L42.7125 77.3287
" />
<path d="M42.7125 77.3287
L42.7125 75.2287
" />
<path d="M42.7125 75.2287
L38.2125 75.2287
" />
<path d="M38.2125 75.2287
L38.2125 77.3287
" />
<path d="M214.4250 39.2287
L218.9250 39.2287
" />
<path d="M218.9250 39.2287
L218.9250 37.1287
" />
<path d="M218.9250 37.1287
L214.4250 37.1287
" />
<path d="M214.4250 37.1287
L214.4250 39.2287
" />
<path d="M171.5625 58.2787
L176.0625 58.2787
" />
<path d="M176.0625 58.2787
L176.0625 56.1788
" />
<path d="M176.0625 56.1788
L171.5625 56.1788
" />
<path d="M171.5625 56.1788
L171.5625 58.2787
" />
<path d="M185.8500 39.2287
L190.3500 39.2287
" />
<path d="M190.3500 39.2287
L190.3500 37.1287
" />
<path d="M190.3500 37.1287
L185.8500 37.1287
" />
<path d="M185.8500 37.1287
L185.8500 39.2287
" />
<path d="M285.8625 20.1788
L290.3625 20.1788
" />
<path d="M290.3625 20.1788
L290.3625 18.0787
" />
<path d="M290.3625 18.0787
L285.8625 18.0787
" />
<path d="M285.8625 18.0787
L285.8625 20.1788
" />
<path d="M212.0437 71.1375
L216.5437 71.1375
" />
<path d="M216.5437 71.1375
L216.5437 69.0375
" />
<path d="M216.5437 69.0375
L212.0437 69.0375
" />
<path d="M212.0437 69.0375
L212.0437 71.1375
" />
<path d="M14.4000 20.1000
L18.9000 20.1000
" />
<path d="M18.9000 20.1000
L18.9000 18.0000
" />
<path d="M18.9000 18.0000
L14.4000 18.0000
" />
<path d="M14.4000 18.0000
L14.4000 20.1000
" />
<path d="M100.1250 39.2287
L104.6250 39.2287
" />
<path d="M104.6250 39.2287
L104.6250 37.1287
" />
<path d="M104.6250 37.1287
L100.1250 37.1287
" />
<path d="M100.1250 37.1287
L100.1250 39.2287
" />
<path d="M271.5750 39.2287
L276.0750 39.2287
" />
<path d="M276.0750 39.2287
L276.0750 37.1287
" />
<path d="M276.0750 37.1287
L271.5750 37.1287
" />
<path d="M271.5750 37.1287
L271.5750 39.2287
" />
<path d="M219.1875 58.2787
L223.6875 58.2787
" />
<path d="M223.6875 58.2787
L223.6875 56.1788
" />
<path d="M223.6875 56.1788
L219.1875 56.1788
" />
<path d="M219.1875 56.1788
L219.1875 58.2787
" />
<path d="M209.6625 20.1788
L214.1625 20.1788
" />
<path d="M214.1625 20.1788
L214.1625 18.0787
" />
<path d="M214.1625 18.0787
L209.6625 18.0787
" />
<path d="M209.6625 18.0787
L209.6625 20.1788
" />
<path d="M323.9625 81.1000
L328.4625 81.1000
" />
<path d="M328.4625 81.1000
L328.4625 79.0000
" />
<path d="M328.4625 79.0000
L323.9625 79.0000
" />
<path d="M323.9625 79.0000
L323.9625 81.1000
" />
<path d="M47.7375 58.2787
L52.2375 58.2787
" />
<path d="M52.2375 58.2787
L52.2375 56.1788
" />
<path d="M52.2375 56.1788
L47.7375 56.1788
" />
<path d="M47.7375 56.1788
L47.7375 58.2787
" />
<path d="M321.5813 39.2287
L326.0813 39.2287
" />
<path d="M326.0813 39.2287
L326.0813 37.1287
" />
<path d="M326.0813 37.1287
L321.5813 37.1287
" />
<path d="M321.5813 37.1287
L321.5813 39.2287
" />
<path d="M95.3625 20.1788
L99.8625 20.1788
" />
<path d="M99.8625 20.1788
L99.8625 18.0787
" />
<path d="M99.8625 18.0787
L95.3625 18.0787
" />
<path d="M95.3625 18.0787
L95.3625 20.1788
" />
<path d="M166.8000 39.2287
L171.3000 39.2287
" />
<path d="M171.3000 39.2287
L171.3000 37.1287
" />
<path d="M171.3000 37.1287
L166.8000 37.1287
" />
<path d="M166.8000 37.1287
L166.8000 39.2287
" />
<path d="M81.0750 39.2287
L85.5750 39.2287
" />
<path d="M85.5750 39.2287
L85.5750 37.1287
" />
<path d="M85.5750 37.1287
L81.0750 37.1287
" />
<path d="M81.0750 37.1287
L81.0750 39.2287
" />
<path d="M152.5125 58.2787
L157.0125 58.2787
" />
<path d="M157.0125 58.2787
L157.0125 56.1788
" />
<path d="M157.0125 56.1788
L152.5125 56.1788
" />
<path d="M152.5125 56.1788
L152.5125 58.2787
" />
<path d="M19.1625 58.2787
L23.6625 58.2787
" />
<path d="M23.6625 58.2787
L23.6625 56.1788
" />
<path d="M23.6625 56.1788
L19.1625 56.1788
" />
<path d="M19.1625 56.1788
L19.1625 58.2787
" />
<path d="M228.7125 20.1788
L233.2125 20.1788
" />
<path d="M233.2125 20.1788
L233.2125 18.0787
" />
<path d="M233.2125 18.0787
L228.7125 18.0787
" />
<path d="M228.7125 18.0787
L228.7125 20.1788
" />
<path d="M62.0250 39.2287
L66.5250 39.2287
" />
<path d="M66.5250 39.2287
L66.5250 37.1287
" />
<path d="M66.5250 37.1287
L62.0250 37.1287
" />
<path d="M62.0250 37.1287
L62.0250 39.2287
" />
<path d="M233.4750 39.2287
L237.9750 39.2287
" />
<path d="M237.9750 39.2287
L237.9750 37.1287
" />
<path d="M237.9750 37.1287
L233.4750 37.1287
" />
<path d="M233.4750 37.1287
L233.4750 39.2287
" />
<path d="M16.7812 39.2287
L21.2812 39.2287
" />
<path d="M21.2812 39.2287
L21.2812 37.1287
" />
<path d="M21.2812 37.1287
L16.7812 37.1287
" />
<path d="M16.7812 37.1287
L16.7812 39.2287
" />
<path d="M295.3875 58.2787
L299.8875 58.2787
" />
<path d="M299.8875 58.2787
L299.8875 56.1788
" />
<path d="M299.8875 56.1788
L295.3875 56.1788
" />
<path d="M295.3875 56.1788
L295.3875 58.2787
" />
<path d="M362.0625 81.1388
L366.5625 81.1388
" />
<path d="M366.5625 81.1388
L366.5625 79.0387
" />
<path d="M366.5625 79.0387
L362.0625 79.0387
" />
<path d="M362.0625 79.0387
L362.0625 81.1388
" />
<g >
</g>
<g >
</g>
<g >
</g>
<g >
</g>
<g >
</g>
<g >
</g>
<g >
</g>
<g >
</g>
<g >
</g>
<g >
</g>
<g >
</g>
<g >
</g>
<g >
</g>
<g >
</g>
<g >
</g>
<g >
</g>
<g >
</g>
<g >
</g>
<g >
</g>
<g >
</g>
<g >
</g>
<g >
</g>
<g >
</g>
<g >
</g>
<g >
</g>
<g >
</g>
<g >
</g>
<g >
</g>
<g >
</g>
<g >
</g>
<g >
</g>
<g >
</g>
<g >
</g>
<g >
</g>
<g >
</g>
<g >
</g>
<g >
</g>
<g >
</g>
<g >
</g>
<g >
</g>
<g >
</g>
<g >
</g>
<g >
</g>
<g >
</g>
<g >
</g>
<g >
</g>
<g >
</g>
<g >
</g>
<g >
</g>
<g >
</g>
<g >
</g>
<g >
</g>
<g >
</g>
<g >
</g>
<g >
</g>
<g >
</g>
<g >
</g>
<g >
</g>
<g >
</g>
<g >
</g>
<g >
</g>
<g >
</g>
<g >
</g>
<g >
</g>
<g >
</g>
<g >
</g>
<g >
</g>
<g >
</g>
<g >
</g>
<g >
</g>
<g >
</g>
<g >
</g>
<g >
</g>
<g >
</g>
<g >
</g>
<g >
</g>
<g >
</g>
<g >
</g>
<g >
</g>
<g >
</g>
<g >
</g>
<g >
</g>
<g >
</g>
<g >
</g>
<g >
</g>
<g >
</g>
<g >
</g>
<g >
</g>
<g >
</g>
<g >
</g>
<g >
</g>
<g >
</g>
<g >
</g>
<g >
</g>
<g >
</g>
<g >
</g>
<g >
</g>
<g >
</g>
<g >
</g>
<g >
</g>
<g >
</g>
<g >
</g>
<g >
</g>
<g >
</g>
<g >
</g>
<g >
</g>
<g >
</g>
<g >
</g>
<g >
</g>
<g >
</g>
<g >
</g>
<g >
</g>
<g >
</g>
<g >
</g>
<g >
</g>
<g >
</g>
<g >
</g>
<g >
</g>
<g >
</g>
<g >
</g>
<g >
</g>
<g >
</g>
<g >
</g>
<g >
</g>
<g >
</g>
<g >
</g>
<g >
</g>
<g >
</g>
<g >
</g>
<g >
</g>
<g >
</g>
<g >
</g>
<g >
</g>
<g >
</g>
<g >
</g>
<g >
</g>
<g >
</g>
<g >
</g>
<g >
</g>
<g >
</g>
<g >
</g>
<g >
</g>
</g> 
</svg>
