<?xml version="1.0" encoding="UTF-8" standalone="no"?>
<!-- Created with Inkscape (http://www.inkscape.org/) -->

<svg
   width="21mm"
   height="13mm"
   viewBox="0 0 21 13"
   version="1.1"
   id="svg5"
   inkscape:version="1.2.2 (732a01da63, 2022-12-09)"
   sodipodi:docname="keebar-logo.svg"
   inkscape:export-filename="keebar-logo.png"
   inkscape:export-xdpi="600"
   inkscape:export-ydpi="600"
   xmlns:inkscape="http://www.inkscape.org/namespaces/inkscape"
   xmlns:sodipodi="http://sodipodi.sourceforge.net/DTD/sodipodi-0.dtd"
   xmlns="http://www.w3.org/2000/svg"
   xmlns:svg="http://www.w3.org/2000/svg">
  <sodipodi:namedview
     id="namedview7"
     pagecolor="#ffffff"
     bordercolor="#000000"
     borderopacity="0.25"
     inkscape:showpageshadow="2"
     inkscape:pageopacity="0.0"
     inkscape:pagecheckerboard="0"
     inkscape:deskcolor="#d1d1d1"
     inkscape:document-units="mm"
     showgrid="false"
     inkscape:zoom="11.816274"
     inkscape:cx="35.247998"
     inkscape:cy="34.401708"
     inkscape:window-width="1920"
     inkscape:window-height="1010"
     inkscape:window-x="-6"
     inkscape:window-y="-6"
     inkscape:window-maximized="1"
     inkscape:current-layer="text236" />
  <defs
     id="defs2" />
  <g
     inkscape:label="Layer 1"
     inkscape:groupmode="layer"
     id="layer1">
    <g
       aria-label="KeeBar"
       transform="scale(0.97391311,1.0267856)"
       id="text236"
       style="font-size:9.62473px;fill:none;stroke:#0000ff;stroke-width:0.103284">
      <path
         d="M 0.14294476,8.7678623 H 1.4212292 L 1.636067,6.3616798 H 2.2698382 L 2.0657424,8.7678623 H 3.3440269 L 3.5803484,6.0179394 C 3.5910903,5.8353274 3.5373808,5.6741991 3.429962,5.5345545 3.3118012,5.4056519 3.1721567,5.3304587 3.0002865,5.3304587 L 3.7629604,3.9554973 3.8274118,3.2680165 H 2.5383854 L 2.484676,3.9554973 1.722002,5.3304587 1.9046141,3.2680165 H 0.62632965 Z"
         style="font-family:'Motion Control';-inkscape-font-specification:'Motion Control';fill:#000000;stroke:#000000"
         id="path397" />
      <path
         d="M 5.986536,6.1253583 H 5.3957323 l 0.021484,-0.2470634 h 0.5908037 z m -1.4286708,2.642504 h 1.8046369 c 0.1611282,0 0.3115147,-0.064451 0.4511592,-0.2040958 C 6.9425639,8.4348638 7.0177571,8.2737356 7.0392409,8.0803816 L 7.0929503,7.3929009 H 5.8791172 L 5.8468915,7.7366412 H 5.2560878 L 5.3097972,7.1565794 H 7.1144341 L 7.2648205,5.5345545 C 7.2755624,5.3519425 7.221853,5.1908142 7.1144341,5.0511697 7.0070152,4.922267 6.8673707,4.8470738 6.7062424,4.8470738 H 4.9016055 c -0.1718702,0 -0.3329985,0.075193 -0.4619011,0.2040959 C 4.3108018,5.1908142 4.2356086,5.3519425 4.2248667,5.5345545 L 3.9992871,8.0803816 c -0.021484,0.193354 0.032226,0.3544822 0.1396445,0.4833849 0.1074189,0.1396445 0.2470634,0.2040958 0.4189336,0.2040958 z"
         style="font-family:'Motion Control';-inkscape-font-specification:'Motion Control';fill:#000000;stroke:#000000"
         id="path399" />
      <path
         d="M 9.6387851,6.1253583 H 9.0479814 l 0.021484,-0.2470634 h 0.5908037 z m -1.4286708,2.642504 h 1.8046367 c 0.161128,0 0.311515,-0.064451 0.451159,-0.2040958 0.128903,-0.1289027 0.204096,-0.2900309 0.22558,-0.4833849 l 0.05371,-0.6874807 H 9.5313663 L 9.4991406,7.7366412 H 8.9083369 L 8.9620463,7.1565794 H 10.766683 L 10.91707,5.5345545 C 10.927811,5.3519425 10.874102,5.1908142 10.766683,5.0511697 10.659264,4.922267 10.51962,4.8470738 10.358492,4.8470738 H 8.5538546 c -0.1718702,0 -0.3329985,0.075193 -0.4619011,0.2040959 C 7.9630509,5.1908142 7.8878577,5.3519425 7.8771158,5.5345545 L 7.6515362,8.0803816 c -0.021484,0.193354 0.032226,0.3544822 0.1396445,0.4833849 0.1074189,0.1396445 0.2470634,0.2040958 0.4189336,0.2040958 z"
         style="font-family:'Motion Control';-inkscape-font-specification:'Motion Control';fill:#000000;stroke:#000000"
         id="path401" />
      <path
         d="m 13.484388,5.3304587 h -0.644513 l 0.09668,-1.0312211 h 0.633772 z M 13.269551,7.7366412 H 12.635779 L 12.75394,6.3616798 h 0.633771 z M 14.418933,5.4163938 C 14.4619,5.39491 14.51561,5.3519425 14.569319,5.2982331 14.708963,5.1693304 14.784157,5.0082021 14.80564,4.8148482 l 0.04297,-0.5156106 C 14.870092,4.0199486 14.80564,3.7728852 14.63377,3.5687894 14.4619,3.3754354 14.23632,3.2680165 13.978515,3.2680165 h -2.234312 l -0.483385,5.4998458 h 2.234312 c 0.268547,0 0.504869,-0.096677 0.708965,-0.3007728 0.204096,-0.1933539 0.322256,-0.4404173 0.34374,-0.7304483 L 14.698222,6.0179394 C 14.708963,5.8353274 14.655254,5.6741991 14.547835,5.5345545 14.504868,5.491587 14.4619,5.4486195 14.418933,5.4163938 Z"
         style="font-family:'Motion Control';-inkscape-font-specification:'Motion Control';fill:#000000;stroke:#000000"
         id="path403" />
      <path
         d="m 18.436403,4.8470738 h -2.416925 c -0.17187,0 -0.332998,0.075193 -0.461901,0.2040959 -0.128902,0.1396445 -0.204095,0.3007728 -0.214837,0.4833848 l -0.22558,2.5887946 c -0.02148,0.1826121 0.03223,0.3329985 0.139645,0.4619012 0.107418,0.1289026 0.247063,0.182612 0.418933,0.182612 h 0.902319 l 0.322256,-0.3222566 -0.03223,0.3222566 h 1.224576 z m -1.48238,2.9540188 h -0.590804 l 0.17187,-1.9227977 h 0.590804 z"
         style="font-family:'Motion Control';-inkscape-font-specification:'Motion Control';fill:#000000;stroke:#000000"
         id="path405" />
      <path
         d="m 18.715699,8.7678623 h 1.224575 l 0.247063,-2.8895674 h 0.300773 l -0.03223,0.3437404 h 0.91306 l 0.09668,-1.0312211 c 0,-0.085935 -0.02148,-0.1718702 -0.07519,-0.2363215 -0.05371,-0.064451 -0.118161,-0.1074189 -0.204096,-0.1074189 h -0.612288 l -0.322256,0.3437404 0.03223,-0.3437404 h -1.224575 z"
         style="font-family:'Motion Control';-inkscape-font-specification:'Motion Control';fill:#000000;stroke:#000000"
         id="path407" />
    </g>
  </g>
</svg>
