<?xml version="1.0" standalone="no"?>
 <!DOCTYPE svg PUBLIC "-//W3C//DTD SVG 1.1//EN" 
 "http://www.w3.org/Graphics/SVG/1.1/DTD/svg11.dtd"> 
<svg
  xmlns:svg="http://www.w3.org/2000/svg"
  xmlns="http://www.w3.org/2000/svg"
  xmlns:xlink="http://www.w3.org/1999/xlink"
  version="1.1"
  width="387.3246mm" height="91.5162mm" viewBox="0.0000 0.0000 387.3246 91.5162">
<title>SVG Image created as KeeBar_BottomPlate-brd.svg date 2023/06/19 21:14:02 </title>
  <desc>Image generated by PCBNEW </desc>
<g style="fill:#000000; fill-opacity:1.0000;stroke:#000000; stroke-opacity:1.0000;
stroke-linecap:round; stroke-linejoin:round;"
 transform="translate(0 0) scale(1 1)">
</g>
<g style="fill:#000000; fill-opacity:0.0; 
stroke:#000000; stroke-width:0.0000; stroke-opacity:1; 
stroke-linecap:round; stroke-linejoin:round;">
</g>
<g style="fill:#000000; fill-opacity:0.0; 
stroke:#000000; stroke-width:0.1000; stroke-opacity:1; 
stroke-linecap:round; stroke-linejoin:round;">
<path d="M378.7393 25.4250
L361.7393 25.4250
" />
<path d="M379.7393 16.9250
L379.7393 24.4250
" />
<path d="M361.7393 15.9250 A1.0000 1.0000 0.0 0 0 360.7393 16.9250" />
<path d="M387.2393 5.9250 A1.0000 1.0000 0.0 0 0 386.2393 4.9250" />
<path d="M12.2393 4.9250 A1.0000 1.0000 0.0 0 0 11.2393 5.9250" />
<path d="M379.7393 16.9250 A1.0000 1.0000 0.0 0 0 378.7393 15.9250" />
<path d="M386.2393 91.4250 A1.0000 1.0000 0.0 0 0 387.2393 90.4250" />
<path d="M387.2393 5.9250
L387.2393 90.4250
" />
<path d="M360.7393 24.4250
L360.7393 16.9250
" />
<path d="M11.2393 90.4250 A1.0000 1.0000 0.0 0 0 12.2393 91.4250" />
<path d="M12.2393 4.9250
L386.2393 4.9250
" />
<path d="M11.2393 90.4250
L11.2393 5.9250
" />
<path d="M360.7393 24.4250 A1.0000 1.0000 0.0 0 0 361.7393 25.4250" />
<path d="M361.7393 15.9250
L378.7393 15.9250
" />
<path d="M378.7393 25.4250 A1.0000 1.0000 0.0 0 0 379.7393 24.4250" />
<path d="M386.2393 91.4250
L12.2393 91.4250
" />
</g>
<g style="fill:#000000; fill-opacity:0.0; 
stroke:#000000; stroke-width:0.0100; stroke-opacity:1; 
stroke-linecap:round; stroke-linejoin:round;">
<circle cx="335.2393" cy="24.9250" r="1.1000" /> 
<circle cx="104.2393" cy="27.4250" r="1.1000" /> 
<circle cx="253.2393" cy="66.9250" r="1.1000" /> 
<circle cx="39.7393" cy="24.9250" r="1.1000" /> 
<circle cx="189.7393" cy="45.9250" r="1.1000" /> 
<circle cx="107.2393" cy="66.9250" r="1.1000" /> 
<circle cx="340.7393" cy="63.9250" r="1.1000" /> 
<circle cx="251.7393" cy="26.9250" r="1.1000" /> 
<circle cx="39.7393" cy="67.9250" r="1.1000" /> 
<g >
</g>
<g >
</g>
<g >
</g>
<g >
</g>
<g >
</g>
<g >
</g>
<g >
</g>
<g >
</g>
<g >
</g>
<g >
</g>
<g >
</g>
<g >
</g>
<g >
</g>
</g> 
</svg>
